<?xml version="1.0" encoding="utf-8"?>
<!-- Generator: Adobe Illustrator 16.0.3, SVG Export Plug-In . SVG Version: 6.00 Build 0)  -->
<!DOCTYPE svg PUBLIC "-//W3C//DTD SVG 1.1//EN" "http://www.w3.org/Graphics/SVG/1.1/DTD/svg11.dtd">
<svg version="1.1" id="Layer_1" xmlns="http://www.w3.org/2000/svg" xmlns:xlink="http://www.w3.org/1999/xlink" x="0px" y="0px"
	 width="512px" height="512px" viewBox="0 0 512 512" enable-background="new 0 0 512 512" xml:space="preserve">
<path fill-rule="evenodd" clip-rule="evenodd" d="M20.6,255.94c0-130.04,105.42-235.45,235.46-235.45
	c130.04,0,235.45,105.41,235.45,235.45c0,130.041-105.41,235.46-235.45,235.46C126.02,491.4,20.6,385.98,20.6,255.94z"/>
<polygon fill-rule="evenodd" clip-rule="evenodd" fill="#FFFFFF" points="31.19,346.641 105.05,346.641 164.81,136.89 
	368.91,136.89 400.54,177.71 346.3,346.54 486.221,346.54 460.939,386.46 294.32,386.46 358.16,186.73 348.23,174.94 293.91,174.94 
	232.44,386.46 190.93,386.46 254.21,174.94 190.99,174.94 128.61,386.43 43.82,386.43 "/>
<path fill-rule="evenodd" clip-rule="evenodd" fill="none" stroke="#FFFFFF" stroke-width="20.0046" stroke-linecap="round" stroke-linejoin="round" stroke-miterlimit="10" d="
	M11.78,255.94c0-134.91,109.37-244.27,244.28-244.27c134.911,0,244.27,109.36,244.27,244.27
	c0,134.91-109.359,244.281-244.27,244.281C121.15,500.221,11.78,390.85,11.78,255.94z"/>
</svg>
